<svg width="14" height="13" viewBox="0 0 14 13" fill="none" xmlns="http://www.w3.org/2000/svg">
<path d="M11.6064 1.24609H10.4609V0.648437C10.4609 0.4284 10.2826 0.25 10.0625 0.25C9.84244 0.25 9.66406 0.4284 9.66406 0.648437V1.24609H4.08594V0.648437C4.08594 0.4284 3.90756 0.25 3.6875 0.25C3.46744 0.25 3.28906 0.4284 3.28906 0.648437V1.24609H2.14355C1.23728 1.24609 0.5 1.98338 0.5 2.88965V11.3564C0.5 12.2627 1.23728 13 2.14355 13H11.6064C12.5127 13 13.25 12.2627 13.25 11.3564V2.88965C13.25 1.98338 12.5127 1.24609 11.6064 1.24609ZM12.4531 11.3564C12.4531 11.8241 12.0741 12.2031 11.6064 12.2031H2.14355C1.67594 12.2031 1.29687 11.8241 1.29687 11.3564V4.75732C1.29687 4.68857 1.35263 4.63281 1.42139 4.63281H12.3286C12.3974 4.63281 12.4531 4.68857 12.4531 4.75732V11.3564Z" fill="white"/>
</svg>
