<svg width="15" height="15" viewBox="0 0 15 15" fill="none" xmlns="http://www.w3.org/2000/svg">
<path d="M1.5 0.5625C1.26578 0.5625 1.06916 0.696334 0.94122 0.880251C0.813818 1.06339 0.75 1.29804 0.75 1.53125C0.75 1.76446 0.813818 1.99911 0.94122 2.18225C1.06916 2.36617 1.26578 2.5 1.5 2.5H13.5C13.7342 2.5 13.9308 2.36617 14.0588 2.18225C14.1862 1.99911 14.25 1.76446 14.25 1.53125C14.25 1.29804 14.1862 1.06339 14.0588 0.880251C13.9308 0.696334 13.7342 0.5625 13.5 0.5625H1.5ZM0.94122 6.63025L1.14645 6.77302L0.94122 6.63025C0.813818 6.81339 0.75 7.04804 0.75 7.28125C0.75 7.51446 0.813818 7.74911 0.94122 7.93225L1.14645 7.78948L0.94122 7.93225C1.06916 8.11617 1.26578 8.25 1.5 8.25H13.5C13.7342 8.25 13.9308 8.11617 14.0588 7.93225C14.1862 7.74911 14.25 7.51446 14.25 7.28125C14.25 7.04804 14.1862 6.81339 14.0588 6.63025C13.9308 6.44633 13.7342 6.3125 13.5 6.3125H1.5C1.26578 6.3125 1.06916 6.44633 0.94122 6.63025ZM0.94122 12.3802C0.813818 12.5634 0.75 12.798 0.75 13.0312C0.75 13.2645 0.813818 13.4991 0.94122 13.6823C1.06916 13.8662 1.26578 14 1.5 14H13.5C13.7342 14 13.9308 13.8662 14.0588 13.6823C14.1862 13.4991 14.25 13.2645 14.25 13.0312C14.25 12.798 14.1862 12.5634 14.0588 12.3802C13.9308 12.1963 13.7342 12.0625 13.5 12.0625H1.5C1.26578 12.0625 1.06916 12.1963 0.94122 12.3802Z" fill="white" stroke="white" stroke-width="0.5"/>
</svg>
