<svg width="17" height="18" viewBox="0 0 17 18" fill="none" xmlns="http://www.w3.org/2000/svg">
<path d="M4.71998 5.16504H4.51309L4.12646 7.09863H5.1066L4.71998 5.16504Z" fill="white"/>
<path d="M12.54 9.03223C12.7488 9.59294 13.0264 10.0468 13.3337 10.433C13.6409 10.0468 13.9508 9.5929 14.1595 9.03223H12.54Z" fill="white"/>
<path d="M15.2999 3.68237H9.29666L10.5484 13.7267C10.5705 14.1375 10.4582 14.5243 10.1901 14.8271L8.07031 17.2498H15.2999C16.0996 17.2498 16.7501 16.5992 16.7501 15.7996V5.16479C16.7501 4.36513 16.0996 3.68237 15.2999 3.68237ZM15.2999 9.03198H15.1708C14.8958 9.91444 14.4596 10.605 14.0063 11.1493C14.3614 11.474 14.7411 11.7403 15.1186 12.0386C15.3268 12.2052 15.3608 12.5092 15.1937 12.7179C15.0273 12.9262 14.7222 12.96 14.5144 12.793C14.1042 12.4692 13.7191 12.1981 13.3341 11.8448C12.9491 12.1981 12.5962 12.4692 12.186 12.793C11.9783 12.96 11.6731 12.9262 11.5067 12.7179C11.3396 12.5092 11.3736 12.2052 11.5818 12.0386C11.9593 11.7403 12.3068 11.474 12.6619 11.1493C12.2086 10.605 11.8046 9.91447 11.5296 9.03198H11.4005C11.1333 9.03198 10.9171 8.81577 10.9171 8.54858C10.9171 8.28139 11.1333 8.06519 11.4005 8.06519H12.8507V7.58179C12.8507 7.3146 13.0669 7.09839 13.3341 7.09839C13.6013 7.09839 13.8175 7.3146 13.8175 7.58179V8.06519H15.2999C15.5671 8.06519 15.7833 8.28139 15.7833 8.54858C15.7833 8.81577 15.5671 9.03198 15.2999 9.03198Z" fill="white"/>
<path d="M8.11857 2.02034C8.0284 1.29618 7.40952 0.75 6.67972 0.75H1.7002C0.900525 0.75 0.25 1.40053 0.25 2.2002V12.8994C0.25 13.6991 0.900525 14.3496 1.7002 14.3496C4.58995 14.3496 6.66879 14.3496 9.32342 14.3496C9.46444 14.1884 9.58265 14.0875 9.58765 13.8771C9.58887 13.8243 8.12511 2.07267 8.11857 2.02034ZM6.17788 9.98958C5.92155 10.0423 5.6619 9.87592 5.60905 9.6105L5.3001 8.06543H3.93333L3.62438 9.6105C3.57246 9.87202 3.32035 10.0438 3.05555 9.98958C2.79403 9.93718 2.62407 9.68275 2.67647 9.42075L3.64323 4.58677C3.68854 4.36111 3.88683 4.19824 4.11719 4.19824H5.11621C5.34657 4.19824 5.54486 4.36111 5.59017 4.58677L6.55696 9.42075C6.60936 9.68275 6.43943 9.93718 6.17788 9.98958Z" fill="white"/>
<path d="M5.89795 15.3162L5.9809 15.9794C6.0362 16.4236 6.33133 16.8765 6.81679 17.1027C7.73293 16.0942 7.17867 16.7043 8.43969 15.3162H5.89795Z" fill="white"/>
</svg>
