<svg width="18" height="18" viewBox="0 0 18 18" fill="none" xmlns="http://www.w3.org/2000/svg">
<g clip-path="url(#clip0)">
<path d="M17.2461 17.2497V17.249H17.2502V11.1976C17.2502 8.23722 16.6129 5.95679 13.152 5.95679C11.4883 5.95679 10.3718 6.86979 9.91599 7.73535H9.86786V6.23316H6.58643V17.249H10.0033V11.7944C10.0033 10.3582 10.2755 8.96941 12.0541 8.96941C13.8065 8.96941 13.8327 10.6084 13.8327 11.8865V17.2497H17.2461Z" fill="white"/>
<path d="M1.02246 6.23413H4.44346V17.2499H1.02246V6.23413Z" fill="white"/>
<path d="M2.73138 0.75C1.63756 0.75 0.75 1.63756 0.75 2.73138C0.75 3.82519 1.63756 4.73131 2.73138 4.73131C3.82519 4.73131 4.71275 3.82519 4.71275 2.73138C4.71206 1.63756 3.8245 0.75 2.73138 0.75V0.75Z" fill="white"/>
</g>
<defs>
<clipPath id="clip0">
<rect width="16.5" height="16.5" fill="white" transform="translate(0.75 0.75)"/>
</clipPath>
</defs>
</svg>
