<svg width="17" height="12" viewBox="0 0 17 12" fill="none" xmlns="http://www.w3.org/2000/svg">
<path d="M14.8657 0.5H1.88428C1.11945 0.5 0.5 1.12329 0.5 1.88428V10.1899C0.5 10.9554 1.124 11.5742 1.88428 11.5742H14.8657C15.6242 11.5742 16.25 10.9581 16.25 10.1899V1.88428C16.25 1.12465 15.633 0.5 14.8657 0.5ZM14.6719 1.42285C14.389 1.70417 9.52189 6.54569 9.35384 6.71285C9.09236 6.97433 8.74476 7.11829 8.375 7.11829C8.00524 7.11829 7.65764 6.9743 7.3953 6.71199C7.28228 6.59956 2.46884 1.8115 2.07814 1.42285H14.6719ZM1.42285 10.0021V2.07269L5.41074 6.03957L1.42285 10.0021ZM2.07872 10.6514L6.06504 6.6904L6.74361 7.3654C7.17938 7.80117 7.75875 8.04114 8.375 8.04114C8.99125 8.04114 9.57062 7.80117 10.0055 7.36626L10.685 6.6904L14.6713 10.6514H2.07872ZM15.3271 10.0021L11.3393 6.03957L15.3271 2.07269V10.0021Z" fill="white"/>
</svg>
