<svg width="17" height="18" viewBox="0 0 17 18" fill="none" xmlns="http://www.w3.org/2000/svg">
<path d="M1.31299 0.562012H15.7556V17.437H1.31299V0.562012Z" stroke="white" stroke-width="1.125"/>
<path d="M10.3489 10.9162C10.3715 10.7799 10.3826 10.6399 10.3826 10.4995C10.3826 10.3599 10.3715 10.2216 10.3493 10.0862L11.0821 9.54576C11.2542 9.41868 11.3016 9.18868 11.1925 9.00951L10.7195 8.23951C10.6096 8.06076 10.3733 7.98409 10.1698 8.06118L9.30619 8.38826C9.07034 8.20951 8.81454 8.07034 8.54367 7.97368L8.41245 7.10701C8.38142 6.90326 8.193 6.74951 7.97356 6.74951H7.02839C6.80895 6.74951 6.62054 6.90326 6.5895 7.10743L6.45828 7.97451C6.18697 8.07243 5.92851 8.21326 5.69931 8.38826L4.83173 8.06118C4.62824 7.98451 4.39239 8.06118 4.28245 8.23951L3.80987 9.00951C3.69992 9.18868 3.7478 9.41951 3.92114 9.54618L4.65307 10.0828C4.63046 10.2191 4.61937 10.3591 4.61937 10.4995C4.61937 10.6391 4.63046 10.7774 4.65262 10.9128L3.91981 11.4533C3.7478 11.5803 3.70037 11.8103 3.80942 11.9895L4.28201 12.7595C4.39195 12.9378 4.62824 13.0145 4.83173 12.9378L5.69532 12.6108C5.93117 12.7895 6.18697 12.9287 6.45784 13.0253L6.58906 13.892C6.62054 14.0958 6.80895 14.2495 7.02839 14.2495H7.97356C8.193 14.2495 8.38142 14.0958 8.41245 13.8916L8.54367 13.0245C8.81499 12.9266 9.07344 12.7858 9.30264 12.6108L10.1702 12.9378C10.3746 13.0149 10.61 12.9383 10.7195 12.7595L11.1921 11.9895C11.302 11.8103 11.2542 11.5795 11.0808 11.4528L10.3489 10.9162ZM7.50098 11.9578C6.64536 11.9578 5.94934 11.3037 5.94934 10.4995C5.94934 9.69534 6.64536 9.04118 7.50098 9.04118C8.35659 9.04118 9.05261 9.69534 9.05261 10.4995C9.05261 11.3037 8.35659 11.9578 7.50098 11.9578Z" fill="white"/>
<path d="M13.0718 6.55063C13.0793 6.49251 13.0902 6.43513 13.0902 6.37476C13.0902 6.31438 13.0793 6.25701 13.0718 6.19888L13.4236 5.94313C13.5021 5.88613 13.524 5.78188 13.4748 5.69976L13.1589 5.17476C13.1097 5.09301 13.0047 5.05888 12.9141 5.09563L12.5092 5.25951C12.4104 5.18713 12.3054 5.12338 12.1894 5.07688L12.1355 4.66401C12.123 4.57026 12.0403 4.49976 11.9419 4.49976H11.3105C11.2121 4.49976 11.1289 4.57026 11.1168 4.66401L11.0629 5.07688C10.947 5.12338 10.8415 5.18751 10.7431 5.25951L10.3382 5.09563C10.2473 5.05888 10.1422 5.09263 10.093 5.17476L9.77755 5.69976C9.72835 5.78151 9.75021 5.88576 9.8287 5.94313L10.1805 6.19888C10.1727 6.25701 10.1618 6.31438 10.1618 6.37476C10.1618 6.43513 10.1727 6.49251 10.1801 6.55063L9.8283 6.80638C9.74982 6.86338 9.72796 6.96763 9.77715 7.04976L10.093 7.57476C10.1422 7.65651 10.2473 7.69063 10.3379 7.65388L10.7428 7.48963C10.8415 7.56201 10.9466 7.62576 11.0625 7.67226L11.1164 8.08513C11.1289 8.17926 11.2117 8.24976 11.3101 8.24976H11.9415C12.0399 8.24976 12.123 8.17926 12.1351 8.08551L12.189 7.67263C12.305 7.62613 12.4104 7.56201 12.5088 7.49001L12.9137 7.65388C13.0047 7.69063 13.1097 7.65688 13.1589 7.57476L13.4744 7.04976C13.5236 6.96801 13.5017 6.86376 13.4233 6.80638L13.0718 6.55063ZM11.626 7.12476C11.1945 7.12476 10.8451 6.78913 10.8451 6.37476C10.8451 5.96038 11.1945 5.62476 11.626 5.62476C12.0574 5.62476 12.4069 5.96038 12.4069 6.37476C12.4069 6.78913 12.0574 7.12476 11.626 7.12476Z" fill="white"/>
</svg>
