<svg width="17" height="16" viewBox="0 0 17 16" fill="none" xmlns="http://www.w3.org/2000/svg">
<path d="M15.837 11.5589L13.6344 9.36094C12.8478 8.57596 11.5105 8.88998 11.1958 9.91043C10.9598 10.6169 10.1732 11.0094 9.46523 10.8524C7.89196 10.4599 5.76804 8.41896 5.37472 6.77049C5.13873 6.06398 5.61071 5.27899 6.31868 5.04353C7.34131 4.72953 7.65596 3.39506 6.86933 2.61007L4.66674 0.412117C4.03743 -0.137372 3.09347 -0.137372 2.54282 0.412117L1.04821 1.90359C-0.446398 3.47356 1.20554 7.63398 4.90273 11.3234C8.59993 15.0128 12.7691 16.7398 14.3424 15.1698L15.837 13.6784C16.3877 13.0504 16.3877 12.1084 15.837 11.5589Z" fill="white"/>
</svg>
