<svg width="13" height="17" viewBox="0 0 13 17" fill="none" xmlns="http://www.w3.org/2000/svg">
<path d="M12.8291 3.56696L9.9314 0.669211C9.87744 0.615117 9.81319 0.572364 9.74246 0.543466C9.67254 0.514907 9.59776 0.500136 9.52224 0.5H1.98815C1.02792 0.5 0.249512 1.27841 0.249512 2.23863V14.9886C0.249512 15.9489 1.02792 16.7273 1.98815 16.7273H11.2609C12.2211 16.7273 12.9995 15.9489 12.9995 14.9886V3.97727C12.9987 3.82344 12.9375 3.6761 12.8291 3.56696ZM10.1018 2.47858L11.0209 3.39775H10.1018V2.47858ZM11.8404 14.9886C11.8404 15.3087 11.5809 15.5682 11.2608 15.5682H1.98815C1.66806 15.5682 1.40859 15.3087 1.40859 14.9886V2.23863C1.40859 1.91855 1.66806 1.65908 1.98815 1.65908H8.94269V3.97727C8.94269 4.29736 9.20216 4.55683 9.52224 4.55683H11.8404V14.9886H11.8404Z" fill="white"/>
<g clip-path="url(#clip0)">
<path d="M8.97561 7.4372C8.94352 7.40508 8.90245 7.38904 8.85253 7.38904H7.93701C7.87628 7.09288 7.76206 6.83579 7.59431 6.61807H8.84177C8.89182 6.61807 8.93277 6.60201 8.96497 6.56997C8.99693 6.53786 9.01298 6.49677 9.01298 6.44681V5.90058C9.01298 5.85058 8.99695 5.80957 8.96497 5.77742C8.93274 5.74536 8.89178 5.72925 8.84173 5.72925H4.38713C4.33713 5.72925 4.29612 5.74536 4.26398 5.77741C4.23193 5.80955 4.21582 5.85056 4.21582 5.90056V6.61265C4.21582 6.65904 4.23277 6.69919 4.26668 6.7331C4.30058 6.767 4.34073 6.78396 4.38713 6.78396H5.16349C5.91659 6.78396 6.39491 6.98557 6.59834 7.38895H4.38713C4.33713 7.38895 4.29606 7.40498 4.26398 7.43711C4.23193 7.46927 4.21582 7.51026 4.21582 7.56026V8.10642C4.21582 8.15638 4.23185 8.19745 4.26398 8.2295C4.29612 8.26166 4.33721 8.27766 4.38713 8.27766H6.67341C6.59487 8.57043 6.41191 8.79348 6.12454 8.94697C5.83715 9.10048 5.45798 9.17724 4.9868 9.17724H4.38713C4.34073 9.17724 4.30058 9.19421 4.26668 9.2281C4.23275 9.26202 4.21582 9.30219 4.21582 9.34855V10.0286C4.21582 10.0751 4.23185 10.1143 4.26398 10.1464C4.94927 10.8745 5.83809 11.8935 6.93032 13.2036C6.96249 13.2465 7.00708 13.2679 7.0642 13.2679H8.10822C8.18325 13.2679 8.23505 13.2358 8.26352 13.1715C8.2992 13.1072 8.29221 13.0465 8.24208 12.9894C7.19994 11.7115 6.38069 10.7549 5.78459 10.1196C6.3914 10.0482 6.88399 9.85184 7.26237 9.53066C7.64069 9.20944 7.87088 8.79173 7.95304 8.27775H8.85253C8.90245 8.27775 8.94354 8.26173 8.97561 8.22959C9.00777 8.19754 9.02386 8.15647 9.02386 8.10652V7.56041C9.02386 7.51036 9.00777 7.46934 8.97561 7.4372Z" fill="white"/>
</g>
<defs>
<clipPath id="clip0">
<rect width="9.33837" height="9.33837" fill="white" transform="translate(1.97412 3.92969)"/>
</clipPath>
</defs>
</svg>
