<svg width="17" height="18" viewBox="0 0 17 18" fill="none" xmlns="http://www.w3.org/2000/svg">
<g clip-path="url(#clip0)">
<path d="M16.4998 3.88372C15.8862 4.15288 15.2323 4.33129 14.5507 4.41791C15.2519 3.99922 15.7872 3.34129 16.0388 2.54826C15.385 2.93807 14.6631 3.21341 13.8938 3.36707C13.273 2.70604 12.3882 2.29663 11.4229 2.29663C9.55016 2.29663 8.04247 3.81669 8.04247 5.68016C8.04247 5.94829 8.06516 6.2061 8.12085 6.45154C5.30863 6.31438 2.82022 4.96654 1.14857 2.91332C0.856725 3.41966 0.685537 3.99922 0.685537 4.62313C0.685537 5.79463 1.28882 6.8331 2.18807 7.43432C1.6446 7.42401 1.11144 7.26622 0.659756 7.01769C0.659756 7.02801 0.659756 7.04141 0.659756 7.05482C0.659756 8.69863 1.83229 10.064 3.36988 10.3785C3.09454 10.4538 2.79444 10.4899 2.48301 10.4899C2.26644 10.4899 2.04782 10.4775 1.8426 10.4322C2.28088 11.7718 3.52457 12.7566 5.00338 12.7886C3.85251 13.6888 2.39122 14.2313 0.809287 14.2313C0.531881 14.2313 0.265818 14.2189 -0.000244141 14.1849C1.49816 15.1512 3.27397 15.7029 5.18901 15.7029C11.4136 15.7029 14.8168 10.5466 14.8168 6.07719C14.8168 5.92766 14.8116 5.78329 14.8044 5.63994C15.4757 5.16351 16.0398 4.56847 16.4998 3.88372Z" fill="white"/>
</g>
<defs>
<clipPath id="clip0">
<rect width="16.5" height="16.5" fill="white" transform="translate(0 0.75)"/>
</clipPath>
</defs>
</svg>
