<svg width="17" height="16" viewBox="0 0 17 16" fill="none" xmlns="http://www.w3.org/2000/svg">
<path d="M13.9422 2.30729C10.8655 -0.769503 5.88502 -0.769995 2.80779 2.30729C-0.269034 5.38409 -0.269495 10.3645 2.80779 13.4417C5.88453 16.5185 10.865 16.519 13.9422 13.4417C17.019 10.3649 17.0195 5.38455 13.9422 2.30729ZM13.6131 12.3194C13.2453 11.9905 12.8518 11.6994 12.437 11.4485C12.7112 10.5015 12.8736 9.45946 12.912 8.37624H15.2267C15.1221 9.83632 14.561 11.206 13.6131 12.3194ZM1.52325 8.37624H3.83799C3.87638 9.45946 4.0388 10.5015 4.31294 11.4485C3.89818 11.6994 3.50469 11.9905 3.13683 12.3194C2.18891 11.206 1.62794 9.83632 1.52325 8.37624ZM3.13686 3.42961C3.50472 3.75855 3.89821 4.04966 4.31297 4.30053C4.03883 5.2475 3.87641 6.28956 3.83802 7.37278H1.52325C1.62794 5.91273 2.18891 4.54308 3.13686 3.42961ZM7.87328 4.40424C7.05501 4.34572 6.26603 4.14418 5.53459 3.8117C5.95999 2.71628 6.7442 1.40244 7.87328 1.07685V4.40424ZM7.87328 5.40957V7.37281H4.84188C4.87662 6.45649 5.00645 5.5766 5.22237 4.77151C6.05358 5.13488 6.94753 5.35188 7.87328 5.40957ZM7.87328 8.37624V10.3395C6.94753 10.3972 6.05358 10.6142 5.22237 10.9775C5.00645 10.1725 4.87662 9.29256 4.84188 8.37624H7.87328ZM7.87328 11.3448V14.6722C6.74426 14.3466 5.96005 13.0329 5.53459 11.9374C6.26603 11.6049 7.05501 11.4033 7.87328 11.3448ZM8.87671 11.3448C9.69498 11.4033 10.484 11.6049 11.2154 11.9374C10.79 13.0328 10.0058 14.3466 8.87671 14.6722V11.3448ZM8.87671 10.3395V8.37624H11.9081C11.8734 9.29256 11.7435 10.1725 11.5276 10.9775C10.6964 10.6142 9.80247 10.3972 8.87671 10.3395ZM8.87671 7.37281V5.40957C9.80247 5.35188 10.6964 5.13488 11.5276 4.77151C11.7435 5.5766 11.8734 6.45649 11.9081 7.37281H8.87671ZM8.87671 4.40424V1.07688C10.0058 1.40247 10.79 2.71631 11.2154 3.81173C10.484 4.14418 9.69498 4.34572 8.87671 4.40424ZM11.1303 1.57779C11.7726 1.85903 12.3717 2.24038 12.9089 2.71354C12.6532 2.93896 12.3834 3.14336 12.1017 3.32615C11.8516 2.70675 11.532 2.1048 11.1303 1.57779ZM4.64824 3.32615C4.36654 3.14336 4.0968 2.93896 3.8411 2.71354C4.37822 2.24038 4.9774 1.85903 5.61964 1.57779C5.21798 2.10486 4.89841 2.70681 4.64824 3.32615ZM4.64827 12.4229C4.89841 13.0423 5.21804 13.6443 5.61967 14.1713C4.97743 13.89 4.37825 13.5087 3.84113 13.0355C4.0968 12.8101 4.36657 12.6057 4.64827 12.4229ZM12.1017 12.4229C12.3834 12.6057 12.6532 12.8101 12.9089 13.0355C12.3717 13.5086 11.7726 13.89 11.1303 14.1712C11.532 13.6443 11.8516 13.0423 12.1017 12.4229ZM12.912 7.37281C12.8736 6.28959 12.7112 5.2475 12.4371 4.30057C12.8518 4.04969 13.2453 3.75859 13.6132 3.42964C14.5611 4.54308 15.1221 5.91273 15.2267 7.37281H12.912Z" fill="white"/>
</svg>
